<?xml version="1.0" standalone="no"?>
<!DOCTYPE svg PUBLIC "-//W3C//DTD SVG 20010904//EN"
 "http://www.w3.org/TR/2001/REC-SVG-20010904/DTD/svg10.dtd">
<svg version="1.0" xmlns="http://www.w3.org/2000/svg"
 width="1716.000000pt" height="1716.000000pt" viewBox="0 0 1716.000000 1716.000000"
 preserveAspectRatio="xMidYMid meet">
<metadata>
Created by potrace 1.14, written by Peter Selinger 2001-2017
</metadata>
<g transform="translate(0.000000,1716.000000) scale(0.100000,-0.100000)"
fill="#000000" stroke="none">
<path d="M11578 13665 c-1 -1 -79 -6 -173 -10 -93 -3 -190 -8 -215 -10 -77 -7
-168 -16 -192 -20 -13 -2 -41 -6 -63 -10 -35 -5 -79 -12 -125 -20 -127 -24
-412 -113 -614 -192 -128 -51 -370 -159 -406 -183 -8 -5 -40 -22 -70 -38 -167
-88 -335 -194 -512 -323 -62 -45 -115 -85 -118 -89 -3 -3 -41 -35 -85 -70
-110 -89 -150 -125 -301 -275 -488 -483 -829 -1049 -1014 -1680 -22 -77 -42
-149 -44 -160 -3 -11 -13 -58 -24 -105 -11 -47 -23 -105 -27 -130 -4 -24 -8
-47 -10 -51 -2 -3 -7 -30 -10 -59 -4 -30 -8 -57 -10 -60 -1 -3 -6 -39 -10 -80
-4 -41 -9 -78 -11 -81 -7 -13 -18 -265 -18 -439 0 -169 8 -357 18 -420 3 -14
7 -56 11 -94 3 -38 8 -72 9 -75 2 -3 6 -29 10 -58 3 -28 8 -57 10 -65 3 -7 8
-30 11 -52 4 -31 42 -204 60 -276 84 -337 260 -758 441 -1055 36 -60 71 -119
78 -130 30 -53 221 -312 281 -380 14 -16 49 -55 76 -87 148 -170 378 -379 574
-523 22 -16 42 -31 45 -34 37 -42 595 -392 630 -396 3 0 16 -7 30 -15 32 -18
179 -90 185 -90 2 0 30 -11 60 -26 175 -79 599 -217 736 -238 20 -3 42 -8 50
-10 8 -3 32 -8 54 -10 22 -3 51 -7 65 -10 14 -2 48 -7 75 -11 28 -3 64 -8 80
-10 17 -2 59 -7 95 -10 242 -21 358 -27 810 -41 118 -3 1064 -7 2103 -9 l1887
-2 0 672 0 671 -392 0 c-392 0 -682 8 -712 20 -12 5 -13 10 -5 27 12 23 80
128 89 137 3 3 21 28 39 55 19 28 66 92 104 143 211 286 368 560 482 843 37
91 109 302 120 349 2 8 15 62 29 120 28 116 32 137 47 225 5 33 12 71 14 85 6
35 23 164 30 235 3 33 8 76 10 95 4 35 11 158 20 340 8 144 8 475 1 559 -6 73
-21 181 -31 231 -2 14 -10 50 -16 80 -51 259 -173 649 -276 880 -27 59 -162
333 -181 365 -23 38 -111 186 -137 229 -11 18 -32 49 -47 69 -16 20 -28 40
-28 45 0 6 -3 12 -8 14 -4 2 -25 28 -47 58 -166 231 -417 499 -640 685 -33 28
-62 52 -65 55 -3 3 -25 21 -50 40 -25 19 -47 37 -50 41 -15 19 -334 228 -450
294 -138 79 -432 225 -454 225 -7 0 -16 4 -22 9 -14 14 -285 115 -414 155
-107 33 -356 87 -460 100 -25 3 -65 8 -90 11 -65 9 -109 13 -192 20 -40 4 -89
8 -108 10 -19 2 -143 7 -275 10 -132 4 -245 8 -252 10 -6 2 -13 2 -15 0z m317
-1798 c22 -3 65 -9 95 -13 30 -3 64 -8 75 -10 11 -3 36 -7 55 -10 207 -33 482
-144 665 -269 331 -225 555 -499 765 -930 185 -381 193 -423 193 -1070 0 -555
-10 -646 -98 -865 -123 -307 -292 -584 -480 -789 -52 -57 -160 -161 -205 -198
-19 -15 -44 -36 -55 -46 -11 -10 -63 -47 -115 -82 -242 -162 -527 -279 -742
-302 -139 -15 -652 -7 -748 12 -162 32 -244 58 -386 125 -102 48 -300 161
-332 190 -9 8 -44 35 -77 60 -83 61 -269 245 -335 331 -99 128 -129 172 -198
294 -62 110 -81 147 -126 245 -35 77 -95 262 -124 380 -30 121 -37 160 -48
245 -3 22 -7 46 -9 53 -7 19 -18 236 -18 332 -1 510 149 1032 411 1440 93 144
265 338 402 452 197 164 566 355 760 392 14 3 36 7 49 10 13 3 46 8 75 11 28
4 76 10 106 14 62 8 384 7 445 -2z"/>
<path d="M4078 11245 c-1 -2 -68 -6 -148 -9 -80 -4 -156 -8 -170 -10 -14 -2
-47 -7 -75 -11 -101 -13 -122 -17 -240 -41 -171 -36 -213 -47 -345 -90 -47
-15 -87 -28 -90 -29 -3 -1 -14 -5 -25 -10 -11 -4 -54 -21 -95 -37 -41 -16
-131 -58 -200 -92 -393 -196 -721 -470 -1008 -841 -35 -45 -139 -208 -184
-290 -56 -100 -138 -269 -138 -283 0 -5 -8 -26 -19 -48 -29 -60 -108 -302
-127 -385 -2 -11 -6 -27 -8 -36 -10 -40 -45 -221 -50 -258 -29 -213 -33 -283
-31 -520 2 -126 5 -243 8 -260 3 -16 8 -59 12 -95 4 -36 20 -128 35 -206 91
-452 268 -840 537 -1177 63 -79 256 -276 338 -346 304 -256 648 -440 1034
-552 144 -42 357 -87 490 -104 30 -4 61 -8 70 -10 9 -1 45 -6 81 -9 36 -4 85
-9 110 -12 233 -24 659 -24 890 1 306 33 673 120 882 209 21 9 39 16 40 15 2
0 40 18 85 40 46 23 85 41 87 41 9 0 176 99 234 139 299 203 616 571 639 742
9 63 3 68 -182 154 -101 47 -446 194 -470 201 -12 3 -301 120 -330 134 -11 5
-94 38 -183 74 l-164 65 -86 -92 c-215 -228 -310 -308 -452 -381 -84 -44 -206
-89 -265 -99 -16 -3 -54 -10 -84 -16 -144 -29 -535 -33 -613 -6 -7 2 -31 7
-53 10 -47 7 -222 65 -285 95 -309 146 -530 440 -589 785 -18 103 -28 299 -22
411 l1 20 2038 -1 c1120 0 2043 1 2049 3 9 3 11 24 8 75 -2 40 -7 117 -10 172
-8 154 -15 265 -20 320 -7 81 -17 178 -21 200 -2 10 -6 37 -9 60 -18 131 -96
458 -121 507 -8 15 -14 29 -13 30 13 20 -159 409 -246 556 -154 261 -420 567
-635 730 -12 10 -34 26 -48 38 -126 99 -322 211 -497 282 -166 67 -460 153
-605 176 -19 3 -73 12 -120 20 -47 8 -112 18 -145 21 -33 3 -73 8 -90 10 -16
2 -97 6 -180 10 -82 3 -155 8 -162 10 -6 2 -13 2 -15 0z m177 -1170 c87 -12
195 -48 293 -97 56 -28 102 -54 102 -58 0 -4 11 -12 24 -18 14 -6 34 -19 46
-29 12 -10 31 -26 43 -36 143 -118 233 -247 319 -452 62 -148 68 -164 71 -205
6 -64 -29 -102 -103 -115 -18 -3 -36 -7 -39 -9 -23 -14 -306 -20 -941 -20
-945 0 -1044 5 -1086 63 -11 14 -11 77 1 131 3 14 7 34 9 45 9 44 77 217 116
296 76 153 150 245 256 320 127 88 347 166 521 185 32 3 60 8 62 10 6 6 255
-3 306 -11z"/>
<path d="M11590 4139 l0 -699 2210 0 2210 0 0 699 0 699 -2210 0 -2210 0 0
-699z"/>
</g>
</svg>
