<?xml version="1.0" standalone="no"?>
<!DOCTYPE svg PUBLIC "-//W3C//DTD SVG 20010904//EN"
 "http://www.w3.org/TR/2001/REC-SVG-20010904/DTD/svg10.dtd">
<svg version="1.0" xmlns="http://www.w3.org/2000/svg"
 width="512.000000pt" height="512.000000pt" viewBox="0 0 512.000000 512.000000"
 preserveAspectRatio="xMidYMid meet">
<metadata>
Created by potrace 1.11, written by Peter Selinger 2001-2013
</metadata>
<g transform="translate(0.000000,512.000000) scale(0.100000,-0.100000)"
fill="#000000" stroke="none">
<path d="M0 2560 l0 -2560 2560 0 2560 0 0 2560 0 2560 -2560 0 -2560 0 0
-2560z m1968 1358 c2 -171 0 -198 -14 -213 -14 -13 -40 -16 -168 -14 l-151 1
-5 -163 -5 -164 -198 -5 -197 -5 -3 -778 c-2 -758 -3 -779 -21 -793 -15 -11
-60 -14 -200 -14 -100 0 -188 5 -196 10 -13 8 -15 108 -18 782 -1 425 0 783 3
796 5 22 6 22 205 22 l200 0 2 203 3 202 165 1 165 2 2 148 c1 82 2 157 2 167
1 16 16 17 214 15 l212 -3 3 -197z m1612 37 l0 -165 186 0 c112 0 193 -4 205
-11 19 -10 20 -20 18 -202 l-1 -192 166 -3 166 -2 0 -795 0 -794 -22 -12 c-15
-8 -77 -10 -201 -7 -161 4 -181 6 -193 23 -12 16 -14 150 -14 792 l0 773 -165
0 -165 0 -2 166 -3 167 -188 -2 c-133 -2 -193 1 -203 10 -11 9 -14 50 -14 209
0 108 3 200 7 203 3 4 100 7 215 7 l208 0 0 -165z m-1972 -2191 c22 -6 22 -9
22 -170 l0 -164 158 0 c110 0 162 -4 170 -12 15 -15 17 -370 2 -399 -10 -18
-23 -19 -215 -19 l-205 0 -2 166 -3 167 -150 -2 c-83 -1 -158 1 -168 4 -15 7
-17 27 -17 215 0 157 3 210 13 213 17 8 368 8 395 1z m2370 -7 c15 -10 17
-383 2 -407 -8 -12 -43 -15 -202 -17 l-193 -2 -5 -163 -5 -163 -207 -3 -208
-2 -5 22 c-3 13 -4 109 -3 213 l3 190 200 2 200 2 3 162 c2 115 6 166 15 172
15 10 387 5 405 -6z"/>
</g>
</svg>
