<svg version="1" xmlns="http://www.w3.org/2000/svg" width="1445.333" height="1445.333" viewBox="0 0 1084.000000 1084.000000"><path d="M0 542v542h1084V0H0v542zm580-330.5c104.1 12.2 194.6 71 248.9 161.7 2.8 4.8 8.7 16 13.1 25 33.9 70.1 41.9 150.2 22.5 226.3C833.6 746.1 737 840 614.5 867.4c-26.5 6-37.5 7-72.5 7-35.3 0-46.3-1-72.7-7-84.2-18.8-156.7-68.7-204.8-140.9-35.4-53.2-53.5-110.5-55.2-174.6-1.3-49.8 6.4-92.1 24.8-137.1 26.3-64.3 75.6-121.5 135.7-157.7 28-16.9 58.6-29.6 90.2-37.6 20.6-5.2 38-7.9 64.5-9.9 9.5-.7 43 .4 55.5 1.9z"/></svg>