<svg width="30" height="28" viewBox="0 0 30 28" fill="none" xmlns="http://www.w3.org/2000/svg">
<path d="M30 13.125C30 11.8327 29.3255 10.7166 28.3333 10.1106V1.75055C28.3333 1.27203 27.9698 0 26.6667 0C26.2958 0 25.9276 0.130156 25.626 0.383906L21.1974 4.1043C18.9729 5.97133 16.1802 7 13.3333 7H3.33333C1.49219 7 0 8.5668 0 10.5V15.75C0 17.6832 1.49219 19.25 3.33333 19.25H5.08854C5.01615 19.8231 4.975 20.4061 4.975 21C4.975 23.1749 5.45729 25.2301 6.30625 27.067C6.57656 27.6516 7.16667 28 7.78542 28H11.6542C13.0109 28 13.8255 26.3681 13.0031 25.235C12.149 24.0581 11.6411 22.5903 11.6411 21C11.6411 20.3924 11.7255 19.8084 11.8708 19.25H13.3333C16.1802 19.25 18.9729 20.2787 21.1969 22.1457L25.6255 25.8661C25.9209 26.1143 26.2878 26.2497 26.6661 26.25C27.9641 26.25 28.3328 25.0042 28.3328 24.5V16.1399C29.3255 15.5334 30 14.4173 30 13.125ZM25 20.8589L23.2786 19.413C20.4661 17.0505 16.9333 15.75 13.3333 15.75V10.5C16.9333 10.5 20.4661 9.19953 23.2786 6.83703L25 5.39109V20.8589Z" fill="#DE1A3E"/>
</svg>
