<svg width="34" height="31" viewBox="0 0 34 31" fill="none" xmlns="http://www.w3.org/2000/svg">
<rect x="7.55542" y="26.4445" width="3.77778" height="3.77778" fill="#DE1A3E"/>
<rect x="3.77783" y="22.6666" width="3.77778" height="3.77778" fill="#DE1A3E"/>
<rect y="18.8889" width="3.77778" height="3.77778" fill="#DE1A3E"/>
<rect y="15.1111" width="3.77778" height="3.77778" fill="#DE1A3E"/>
<rect y="11.3334" width="3.77778" height="3.77778" fill="#DE1A3E"/>
<rect y="7.55554" width="3.77778" height="3.77778" fill="#DE1A3E"/>
<rect x="3.77783" y="3.77777" width="3.77778" height="3.77778" fill="#DE1A3E"/>
<rect x="7.55542" width="3.77778" height="3.77778" fill="#DE1A3E"/>
<rect x="26.4446" y="3.77777" width="3.77778" height="3.77778" transform="rotate(-180 26.4446 3.77777)" fill="#DE1A3E"/>
<rect x="30.2222" y="7.55554" width="3.77778" height="3.77778" transform="rotate(-180 30.2222 7.55554)" fill="#DE1A3E"/>
<rect x="34" y="11.3334" width="3.77778" height="3.77778" transform="rotate(-180 34 11.3334)" fill="#DE1A3E"/>
<rect x="34" y="15.1111" width="3.77778" height="3.77778" transform="rotate(-180 34 15.1111)" fill="#DE1A3E"/>
<rect x="34" y="18.8889" width="3.77778" height="3.77778" transform="rotate(-180 34 18.8889)" fill="#DE1A3E"/>
<rect x="34" y="22.6666" width="3.77778" height="3.77778" transform="rotate(-180 34 22.6666)" fill="#DE1A3E"/>
<rect x="30.2222" y="26.4445" width="3.77778" height="3.77778" transform="rotate(-180 30.2222 26.4445)" fill="#DE1A3E"/>
<rect x="26.4446" y="30.2222" width="3.77778" height="3.77778" transform="rotate(-180 26.4446 30.2222)" fill="#DE1A3E"/>
</svg>
