<svg width="27" height="29" viewBox="0 0 27 29" fill="none" xmlns="http://www.w3.org/2000/svg">
<path d="M2.81435 19.0082L4.36734 19.9726C4.37098 19.9762 4.37828 19.9799 4.38192 19.9835L4.8449 20.2735L4.85584 20.2844C5.89836 20.8839 7.08203 21.1979 8.28628 21.1944C9.92312 21.1944 11.4652 20.6252 12.6974 19.6064C14.3819 18.2017 16.5105 17.4328 18.7088 17.4348C20.6154 17.4348 22.4346 18.004 23.9803 19.0481L24.2683 19.2294L20.1999 8.75184V2.45806H22.5148C22.6752 2.45806 22.8064 2.32754 22.8064 2.16802V0.290036C22.8064 0.130516 22.6752 0 22.5148 0H4.484C4.32359 0 4.19235 0.130516 4.19235 0.290036V2.17165C4.19235 2.33117 4.32359 2.46168 4.484 2.46168H6.7989V8.75547L2.81435 19.0082ZM14.9539 11.645C15.756 11.645 16.4085 12.2939 16.4085 13.0915C16.4085 13.8891 15.756 14.5381 14.9539 14.5381C14.1519 14.5381 13.4994 13.8891 13.4994 13.0915C13.4994 12.2939 14.1519 11.645 14.9539 11.645ZM26.842 25.8531L25.752 23.047L22.6278 21.1074L22.6241 21.111C22.5986 21.0929 22.5694 21.0748 22.5439 21.0566L22.2486 20.8754L22.2377 20.8645C21.1805 20.23 19.9665 19.8929 18.7015 19.8929C17.0647 19.8929 15.5226 20.4621 14.2905 21.4808C12.606 22.8855 10.4773 23.6545 8.27899 23.6525C6.34686 23.6525 4.50587 23.0688 2.94923 21.9992L1.89567 21.343L0.156758 25.8531C0.054683 26.1214 0 26.4042 0 26.687C0 27.9631 1.04262 29 2.32585 29H24.6693C24.9573 29 25.2416 28.9456 25.5077 28.8441C25.7935 28.7357 26.0548 28.5722 26.2768 28.3629C26.4987 28.1536 26.6768 27.9028 26.8008 27.6248C26.9248 27.3468 26.9923 27.0471 26.9994 26.743C27.0065 26.439 26.953 26.1365 26.842 25.8531Z" fill="#DE1A3E"/>
</svg>
