<?xml version="1.0" standalone="no"?>
<!DOCTYPE svg PUBLIC "-//W3C//DTD SVG 20010904//EN"
 "http://www.w3.org/TR/2001/REC-SVG-20010904/DTD/svg10.dtd">
<svg version="1.0" xmlns="http://www.w3.org/2000/svg"
 width="152.000000pt" height="152.000000pt" viewBox="0 0 152.000000 152.000000"
 preserveAspectRatio="xMidYMid meet">
<metadata>
Created by potrace 1.11, written by Peter Selinger 2001-2013
</metadata>
<g transform="translate(0.000000,152.000000) scale(0.100000,-0.100000)"
fill="#000000" stroke="none">
<path d="M0 760 l0 -760 760 0 760 0 0 760 0 760 -760 0 -760 0 0 -760z m580
400 l0 -60 -50 0 -50 0 0 -50 0 -50 -60 0 -60 0 0 -235 0 -235 -60 0 -60 0 0
235 0 235 60 0 60 0 0 60 0 60 50 0 50 0 0 50 0 50 60 0 60 0 0 -60z m480 10
l0 -50 60 0 60 0 0 -60 0 -60 50 0 50 0 0 -235 0 -235 -60 0 -60 0 0 235 0
235 -50 0 -50 0 0 50 0 50 -60 0 -60 0 0 60 0 60 60 0 60 0 0 -50z m-580 -700
l0 -50 50 0 50 0 0 -60 0 -60 -60 0 -60 0 0 50 0 50 -50 0 -50 0 0 60 0 60 60
0 60 0 0 -50z m700 -10 l0 -60 -60 0 -60 0 0 -50 0 -50 -60 0 -60 0 0 60 0 60
60 0 60 0 0 50 0 50 60 0 60 0 0 -60z"/>
</g>
</svg>
