<svg width="34" height="27" viewBox="0 0 34 27" fill="none" xmlns="http://www.w3.org/2000/svg">
<path d="M10.2 13.5C13.4884 13.5 16.15 10.858 16.15 7.59375C16.15 4.32949 13.4884 1.6875 10.2 1.6875C6.91156 1.6875 4.25 4.32949 4.25 7.59375C4.25 10.858 6.91156 13.5 10.2 13.5ZM14.28 15.1875H13.8391C12.7341 15.7148 11.5069 16.0312 10.2 16.0312C8.89313 16.0312 7.67125 15.7148 6.56094 15.1875H6.12C2.74125 15.1875 0 17.9086 0 21.2625V22.7812C0 24.1787 1.14219 25.3125 2.55 25.3125H17.85C19.2578 25.3125 20.4 24.1787 20.4 22.7812V21.2625C20.4 17.9086 17.6588 15.1875 14.28 15.1875ZM25.5 13.5C28.3156 13.5 30.6 11.2324 30.6 8.4375C30.6 5.64258 28.3156 3.375 25.5 3.375C22.6844 3.375 20.4 5.64258 20.4 8.4375C20.4 11.2324 22.6844 13.5 25.5 13.5ZM28.05 15.1875H27.8481C27.1097 15.4406 26.3288 15.6094 25.5 15.6094C24.6713 15.6094 23.8903 15.4406 23.1519 15.1875H22.95C21.8663 15.1875 20.8675 15.4986 19.9909 15.9996C21.2872 17.3865 22.1 19.227 22.1 21.2625V23.2875C22.1 23.4035 22.0734 23.5143 22.0681 23.625H31.45C32.8578 23.625 34 22.4912 34 21.0938C34 17.8295 31.3384 15.1875 28.05 15.1875Z" fill="#DE1A3E"/>
</svg>
