<svg width="74" height="68" xmlns="http://www.w3.org/2000/svg"><g fill="#000" fill-rule="evenodd"><path d="M41.454 22H10.545C9.692 22 9 22.672 9 23.5c0 .829.692 1.5 1.545 1.5h30.909c.853 0 1.546-.671 1.546-1.5 0-.828-.693-1.5-1.546-1.5z"/><path d="M45.882 1.545c0-.853-.686-1.545-1.53-1.545-.845 0-1.528.692-1.528 1.545v3.19h-6.119v-3.19C36.705.692 36.021 0 35.176 0c-.844 0-1.53.692-1.53 1.545v3.19H27.53v-3.19c0-.853-.684-1.545-1.53-1.545-.844 0-1.53.692-1.53 1.545v3.19h-6.116v-3.19c0-.853-.685-1.545-1.53-1.545-.844 0-1.53.692-1.53 1.545v3.19H9.177v-3.19C9.176.692 8.492 0 7.647 0c-.844 0-1.53.692-1.53 1.545v3.19H0V68h52V4.735h-6.118v-3.19zm3.06 6.281V64.91H3.059V7.826h3.058v2.992c0 .853.686 1.545 1.53 1.545.845 0 1.53-.692 1.53-1.545V7.826h6.117v2.992c0 .853.685 1.545 1.53 1.545.844 0 1.529-.692 1.529-1.545V7.826h6.117v2.992c0 .853.685 1.545 1.53 1.545s1.529-.692 1.529-1.545V7.826h6.117v2.992c0 .853.686 1.545 1.53 1.545.845 0 1.53-.691 1.53-1.545V7.826h6.118v2.992c0 .853.683 1.545 1.528 1.545.844 0 1.53-.692 1.53-1.545V7.826h3.06zM74 12.21C74 8.78 71.315 6 68.001 6 64.685 6 62 8.78 62 12.21v41.92h1.861L62 60.86 68.001 65 74 60.86l-1.861-6.73H74V12.21zm-9 0C65 10.5 66.345 9.106 68 9.106c1.653 0 3 1.393 3 3.104v38.816h-6.002V12.21zm5.513 47.323L68 61.268l-2.514-1.735 1.495-5.402h2.036l1.495 5.402z" fill-rule="nonzero"/><path d="M41.454 31H10.545C9.692 31 9 31.672 9 32.5c0 .829.692 1.5 1.545 1.5h30.909c.853 0 1.546-.671 1.546-1.5 0-.828-.693-1.5-1.546-1.5zM41.454 40H10.545C9.692 40 9 40.672 9 41.5c0 .829.692 1.5 1.545 1.5h30.909c.853 0 1.546-.671 1.546-1.5 0-.828-.693-1.5-1.546-1.5zM26.417 50H10.583C9.709 50 9 50.672 9 51.5c0 .829.709 1.5 1.583 1.5h15.834c.874 0 1.583-.671 1.583-1.5 0-.828-.709-1.5-1.583-1.5z"/></g></svg>