<svg xmlns="http://www.w3.org/2000/svg" viewbox="0 0 74 68"><g fill="#000" fill-rule="evenodd"><path d="M45.882 1.545c0-.853-.686-1.545-1.53-1.545-.845 0-1.528.692-1.528 1.545v3.19h-6.119v-3.19C36.705.692 36.021 0 35.176 0c-.844 0-1.53.692-1.53 1.545v3.19H27.53v-3.19c0-.853-.684-1.545-1.53-1.545-.844 0-1.53.692-1.53 1.545v3.19h-6.116v-3.19c0-.853-.685-1.545-1.53-1.545-.844 0-1.53.692-1.53 1.545v3.19H9.177v-3.19C9.176.692 8.492 0 7.647 0c-.844 0-1.53.692-1.53 1.545v3.19H0V68h52V4.735h-6.118v-3.19zm3.06 6.281V64.91H3.059V7.826h3.058v2.992c0 .853.686 1.545 1.53 1.545.845 0 1.53-.692 1.53-1.545V7.826h6.117v2.992c0 .853.685 1.545 1.53 1.545.844 0 1.529-.692 1.529-1.545V7.826h6.117v2.992c0 .853.685 1.545 1.53 1.545s1.529-.692 1.529-1.545V7.826h6.117v2.992c0 .853.686 1.545 1.53 1.545.845 0 1.53-.691 1.53-1.545V7.826h6.118v2.992c0 .853.683 1.545 1.528 1.545.844 0 1.53-.692 1.53-1.545V7.826h3.06zM74 12.21C74 8.78 71.315 6 68.001 6 64.685 6 62 8.78 62 12.21v41.92h1.861L62 60.86 68.001 65 74 60.86l-1.861-6.73H74V12.21zm-9 0C65 10.5 66.345 9.106 68 9.106c1.653 0 3 1.393 3 3.104v38.816h-6.002V12.21zm5.513 47.323L68 61.268l-2.514-1.735 1.495-5.402h2.036l1.495 5.402z" fill-rule="nonzero"/><path d="M34.094 37.953a1.5 1.5 0 1 1-2.41 1.787 7.985 7.985 0 0 0-6.43-3.24 7.978 7.978 0 0 0-6.11 2.834 1.5 1.5 0 1 1-2.289-1.938 10.977 10.977 0 0 1 8.399-3.896c3.527 0 6.779 1.674 8.84 4.453z" fill-rule="nonzero"/><circle cx="19" cy="26" r="2"/><circle cx="32" cy="26" r="2"/></g></svg>
